<mxfile host="app.diagrams.net" modified="2022-06-04T08:56:32.976Z" agent="5.0 (Macintosh; Intel Mac OS X 10_15_7) AppleWebKit/537.36 (KHTML, like Gecko) Chrome/102.0.5005.61 Safari/537.36" etag="6bV8m9pCZ80E5lr1CNO5" version="18.1.3" type="github">
  <diagram id="8jOkWeeJg14i4Y-f5inV" name="Page-1">
    <mxGraphModel dx="1186" dy="683" grid="1" gridSize="10" guides="1" tooltips="1" connect="1" arrows="1" fold="1" page="1" pageScale="1" pageWidth="827" pageHeight="1169" math="0" shadow="0">
      <root>
        <mxCell id="0" />
        <mxCell id="1" parent="0" />
        <mxCell id="oXegIh3aJyW66HYwS0G9-137" value="" style="shape=ext;double=1;rounded=1;whiteSpace=wrap;html=1;shadow=0;strokeColor=#666666;fillColor=default;strokeWidth=1;arcSize=10;" parent="1" vertex="1">
          <mxGeometry x="420" y="1770" width="190" height="216" as="geometry" />
        </mxCell>
        <mxCell id="oXegIh3aJyW66HYwS0G9-1" value="&lt;meta charset=&quot;utf-8&quot;&gt;&lt;a style=&quot;text-decoration: none; color: rgb(6, 69, 173); background: none rgb(255, 255, 255); font-family: sans-serif; font-size: 14px; font-style: normal; font-variant-ligatures: normal; font-variant-caps: normal; font-weight: 400; letter-spacing: normal; orphans: 2; text-align: start; text-indent: 0px; text-transform: none; widows: 2; word-spacing: 0px; -webkit-text-stroke-width: 0px;&quot; title=&quot;Facebook&quot; href=&quot;https://en.wikipedia.org/wiki/Facebook&quot;&gt;Facebook&lt;/a&gt;&lt;span style=&quot;color: rgb(32, 33, 34); font-family: sans-serif; font-size: 14px; font-style: normal; font-variant-ligatures: normal; font-variant-caps: normal; font-weight: 400; letter-spacing: normal; orphans: 2; text-align: start; text-indent: 0px; text-transform: none; widows: 2; word-spacing: 0px; -webkit-text-stroke-width: 0px; background-color: rgb(255, 255, 255); text-decoration-thickness: initial; text-decoration-style: initial; text-decoration-color: initial; float: none; display: inline !important;&quot;&gt;&#39;s&lt;span&gt;&amp;nbsp;&lt;/span&gt;&lt;/span&gt;&lt;b style=&quot;color: rgb(32, 33, 34); font-family: sans-serif; font-size: 14px; font-style: normal; font-variant-ligatures: normal; font-variant-caps: normal; letter-spacing: normal; orphans: 2; text-align: start; text-indent: 0px; text-transform: none; widows: 2; word-spacing: 0px; -webkit-text-stroke-width: 0px; background-color: rgb(255, 255, 255); text-decoration-thickness: initial; text-decoration-style: initial; text-decoration-color: initial;&quot;&gt;Feed&lt;/b&gt;&lt;span style=&quot;color: rgb(32, 33, 34); font-family: sans-serif; font-size: 14px; font-style: normal; font-variant-ligatures: normal; font-variant-caps: normal; font-weight: 400; letter-spacing: normal; orphans: 2; text-align: start; text-indent: 0px; text-transform: none; widows: 2; word-spacing: 0px; -webkit-text-stroke-width: 0px; background-color: rgb(255, 255, 255); text-decoration-thickness: initial; text-decoration-style: initial; text-decoration-color: initial; float: none; display: inline !important;&quot;&gt;, formerly known as the&lt;span&gt;&amp;nbsp;&lt;/span&gt;&lt;/span&gt;&lt;b style=&quot;color: rgb(32, 33, 34); font-family: sans-serif; font-size: 14px; font-style: normal; font-variant-ligatures: normal; font-variant-caps: normal; letter-spacing: normal; orphans: 2; text-align: start; text-indent: 0px; text-transform: none; widows: 2; word-spacing: 0px; -webkit-text-stroke-width: 0px; background-color: rgb(255, 255, 255); text-decoration-thickness: initial; text-decoration-style: initial; text-decoration-color: initial;&quot;&gt;News Feed&lt;/b&gt;&lt;span style=&quot;color: rgb(32, 33, 34); font-family: sans-serif; font-size: 14px; font-style: normal; font-variant-ligatures: normal; font-variant-caps: normal; font-weight: 400; letter-spacing: normal; orphans: 2; text-align: start; text-indent: 0px; text-transform: none; widows: 2; word-spacing: 0px; -webkit-text-stroke-width: 0px; background-color: rgb(255, 255, 255); text-decoration-thickness: initial; text-decoration-style: initial; text-decoration-color: initial; float: none; display: inline !important;&quot;&gt;, is a&lt;span&gt;&amp;nbsp;&lt;/span&gt;&lt;/span&gt;&lt;a style=&quot;text-decoration: none; color: rgb(6, 69, 173); background: none rgb(255, 255, 255); font-family: sans-serif; font-size: 14px; font-style: normal; font-variant-ligatures: normal; font-variant-caps: normal; font-weight: 400; letter-spacing: normal; orphans: 2; text-align: start; text-indent: 0px; text-transform: none; widows: 2; word-spacing: 0px; -webkit-text-stroke-width: 0px;&quot; title=&quot;Web feed&quot; href=&quot;https://en.wikipedia.org/wiki/Web_feed&quot;&gt;web feed&lt;/a&gt;&lt;span style=&quot;color: rgb(32, 33, 34); font-family: sans-serif; font-size: 14px; font-style: normal; font-variant-ligatures: normal; font-variant-caps: normal; font-weight: 400; letter-spacing: normal; orphans: 2; text-align: start; text-indent: 0px; text-transform: none; widows: 2; word-spacing: 0px; -webkit-text-stroke-width: 0px; background-color: rgb(255, 255, 255); text-decoration-thickness: initial; text-decoration-style: initial; text-decoration-color: initial; float: none; display: inline !important;&quot;&gt;&lt;span&gt;&amp;nbsp;&lt;/span&gt;feature for the social network. The feed is the primary system through which users are exposed to content posted on the network. Feed highlights information that includes profile changes, upcoming events, and birthdays, among other updates. Using a proprietary method, Facebook selects a handful of updates to show users every time they visit their feed, out of an average of 2,000 updates they can potentially receive. Over two billion people use Facebook every month, making the network&#39;s Feed the most viewed and most influential aspect of the news industry.&lt;/span&gt;&lt;sup style=&quot;line-height: 1; unicode-bidi: isolate; font-weight: 400; font-style: normal; font-size: 11.2px; color: rgb(32, 33, 34); font-family: sans-serif; font-variant-ligatures: normal; font-variant-caps: normal; letter-spacing: normal; orphans: 2; text-align: start; text-indent: 0px; text-transform: none; widows: 2; word-spacing: 0px; -webkit-text-stroke-width: 0px; background-color: rgb(255, 255, 255); text-decoration-thickness: initial; text-decoration-style: initial; text-decoration-color: initial;&quot; class=&quot;reference&quot; id=&quot;cite_ref-NYT_1-0&quot;&gt;&lt;a style=&quot;text-decoration: none; color: rgb(6, 69, 173); background: none;&quot; href=&quot;https://en.wikipedia.org/wiki/Feed_(Facebook)#cite_note-NYT-1&quot;&gt;[1]&lt;/a&gt;&lt;/sup&gt;&lt;span style=&quot;color: rgb(32, 33, 34); font-family: sans-serif; font-size: 14px; font-style: normal; font-variant-ligatures: normal; font-variant-caps: normal; font-weight: 400; letter-spacing: normal; orphans: 2; text-align: start; text-indent: 0px; text-transform: none; widows: 2; word-spacing: 0px; -webkit-text-stroke-width: 0px; background-color: rgb(255, 255, 255); text-decoration-thickness: initial; text-decoration-style: initial; text-decoration-color: initial; float: none; display: inline !important;&quot;&gt;&lt;span&gt;&amp;nbsp;&lt;/span&gt;The feature, introduced in 2006, was renamed &quot;Feed&quot; in 2022.&lt;/span&gt;" style="text;whiteSpace=wrap;html=1;" parent="1" vertex="1">
          <mxGeometry x="20" y="10" width="550" height="150" as="geometry" />
        </mxCell>
        <mxCell id="oXegIh3aJyW66HYwS0G9-3" value="User" style="shape=table;startSize=30;container=1;collapsible=1;childLayout=tableLayout;fixedRows=1;rowLines=0;fontStyle=1;align=center;resizeLast=1;" parent="1" vertex="1">
          <mxGeometry x="60" y="220" width="180" height="280" as="geometry" />
        </mxCell>
        <mxCell id="oXegIh3aJyW66HYwS0G9-4" value="" style="shape=tableRow;horizontal=0;startSize=0;swimlaneHead=0;swimlaneBody=0;fillColor=none;collapsible=0;dropTarget=0;points=[[0,0.5],[1,0.5]];portConstraint=eastwest;top=0;left=0;right=0;bottom=1;" parent="oXegIh3aJyW66HYwS0G9-3" vertex="1">
          <mxGeometry y="30" width="180" height="30" as="geometry" />
        </mxCell>
        <mxCell id="oXegIh3aJyW66HYwS0G9-5" value="PK" style="shape=partialRectangle;connectable=0;fillColor=none;top=0;left=0;bottom=0;right=0;fontStyle=1;overflow=hidden;" parent="oXegIh3aJyW66HYwS0G9-4" vertex="1">
          <mxGeometry width="30" height="30" as="geometry">
            <mxRectangle width="30" height="30" as="alternateBounds" />
          </mxGeometry>
        </mxCell>
        <mxCell id="oXegIh3aJyW66HYwS0G9-6" value="UniqueID" style="shape=partialRectangle;connectable=0;fillColor=none;top=0;left=0;bottom=0;right=0;align=left;spacingLeft=6;fontStyle=5;overflow=hidden;" parent="oXegIh3aJyW66HYwS0G9-4" vertex="1">
          <mxGeometry x="30" width="150" height="30" as="geometry">
            <mxRectangle width="150" height="30" as="alternateBounds" />
          </mxGeometry>
        </mxCell>
        <mxCell id="oXegIh3aJyW66HYwS0G9-7" value="" style="shape=tableRow;horizontal=0;startSize=0;swimlaneHead=0;swimlaneBody=0;fillColor=none;collapsible=0;dropTarget=0;points=[[0,0.5],[1,0.5]];portConstraint=eastwest;top=0;left=0;right=0;bottom=0;" parent="oXegIh3aJyW66HYwS0G9-3" vertex="1">
          <mxGeometry y="60" width="180" height="30" as="geometry" />
        </mxCell>
        <mxCell id="oXegIh3aJyW66HYwS0G9-8" value="" style="shape=partialRectangle;connectable=0;fillColor=none;top=0;left=0;bottom=0;right=0;editable=1;overflow=hidden;" parent="oXegIh3aJyW66HYwS0G9-7" vertex="1">
          <mxGeometry width="30" height="30" as="geometry">
            <mxRectangle width="30" height="30" as="alternateBounds" />
          </mxGeometry>
        </mxCell>
        <mxCell id="oXegIh3aJyW66HYwS0G9-9" value="name" style="shape=partialRectangle;connectable=0;fillColor=none;top=0;left=0;bottom=0;right=0;align=left;spacingLeft=6;overflow=hidden;" parent="oXegIh3aJyW66HYwS0G9-7" vertex="1">
          <mxGeometry x="30" width="150" height="30" as="geometry">
            <mxRectangle width="150" height="30" as="alternateBounds" />
          </mxGeometry>
        </mxCell>
        <mxCell id="oXegIh3aJyW66HYwS0G9-13" value="" style="shape=tableRow;horizontal=0;startSize=0;swimlaneHead=0;swimlaneBody=0;fillColor=none;collapsible=0;dropTarget=0;points=[[0,0.5],[1,0.5]];portConstraint=eastwest;top=0;left=0;right=0;bottom=0;" parent="oXegIh3aJyW66HYwS0G9-3" vertex="1">
          <mxGeometry y="90" width="180" height="30" as="geometry" />
        </mxCell>
        <mxCell id="oXegIh3aJyW66HYwS0G9-14" value="" style="shape=partialRectangle;connectable=0;fillColor=none;top=0;left=0;bottom=0;right=0;editable=1;overflow=hidden;" parent="oXegIh3aJyW66HYwS0G9-13" vertex="1">
          <mxGeometry width="30" height="30" as="geometry">
            <mxRectangle width="30" height="30" as="alternateBounds" />
          </mxGeometry>
        </mxCell>
        <mxCell id="oXegIh3aJyW66HYwS0G9-15" value="city" style="shape=partialRectangle;connectable=0;fillColor=none;top=0;left=0;bottom=0;right=0;align=left;spacingLeft=6;overflow=hidden;" parent="oXegIh3aJyW66HYwS0G9-13" vertex="1">
          <mxGeometry x="30" width="150" height="30" as="geometry">
            <mxRectangle width="150" height="30" as="alternateBounds" />
          </mxGeometry>
        </mxCell>
        <mxCell id="oXegIh3aJyW66HYwS0G9-10" value="" style="shape=tableRow;horizontal=0;startSize=0;swimlaneHead=0;swimlaneBody=0;fillColor=none;collapsible=0;dropTarget=0;points=[[0,0.5],[1,0.5]];portConstraint=eastwest;top=0;left=0;right=0;bottom=0;" parent="oXegIh3aJyW66HYwS0G9-3" vertex="1">
          <mxGeometry y="120" width="180" height="30" as="geometry" />
        </mxCell>
        <mxCell id="oXegIh3aJyW66HYwS0G9-11" value="" style="shape=partialRectangle;connectable=0;fillColor=none;top=0;left=0;bottom=0;right=0;editable=1;overflow=hidden;" parent="oXegIh3aJyW66HYwS0G9-10" vertex="1">
          <mxGeometry width="30" height="30" as="geometry">
            <mxRectangle width="30" height="30" as="alternateBounds" />
          </mxGeometry>
        </mxCell>
        <mxCell id="oXegIh3aJyW66HYwS0G9-12" value="age" style="shape=partialRectangle;connectable=0;fillColor=none;top=0;left=0;bottom=0;right=0;align=left;spacingLeft=6;overflow=hidden;" parent="oXegIh3aJyW66HYwS0G9-10" vertex="1">
          <mxGeometry x="30" width="150" height="30" as="geometry">
            <mxRectangle width="150" height="30" as="alternateBounds" />
          </mxGeometry>
        </mxCell>
        <mxCell id="oXegIh3aJyW66HYwS0G9-16" value="user_follower_junction" style="shape=table;startSize=30;container=1;collapsible=1;childLayout=tableLayout;fixedRows=1;rowLines=0;fontStyle=1;align=center;resizeLast=1;" parent="1" vertex="1">
          <mxGeometry x="430" y="270" width="180" height="150" as="geometry" />
        </mxCell>
        <mxCell id="oXegIh3aJyW66HYwS0G9-17" value="" style="shape=tableRow;horizontal=0;startSize=0;swimlaneHead=0;swimlaneBody=0;fillColor=none;collapsible=0;dropTarget=0;points=[[0,0.5],[1,0.5]];portConstraint=eastwest;top=0;left=0;right=0;bottom=1;" parent="oXegIh3aJyW66HYwS0G9-16" vertex="1">
          <mxGeometry y="30" width="180" height="30" as="geometry" />
        </mxCell>
        <mxCell id="oXegIh3aJyW66HYwS0G9-18" value="" style="shape=partialRectangle;connectable=0;fillColor=none;top=0;left=0;bottom=0;right=0;fontStyle=1;overflow=hidden;" parent="oXegIh3aJyW66HYwS0G9-17" vertex="1">
          <mxGeometry width="30" height="30" as="geometry">
            <mxRectangle width="30" height="30" as="alternateBounds" />
          </mxGeometry>
        </mxCell>
        <mxCell id="oXegIh3aJyW66HYwS0G9-19" value="" style="shape=partialRectangle;connectable=0;fillColor=none;top=0;left=0;bottom=0;right=0;align=left;spacingLeft=6;fontStyle=5;overflow=hidden;" parent="oXegIh3aJyW66HYwS0G9-17" vertex="1">
          <mxGeometry x="30" width="150" height="30" as="geometry">
            <mxRectangle width="150" height="30" as="alternateBounds" />
          </mxGeometry>
        </mxCell>
        <mxCell id="oXegIh3aJyW66HYwS0G9-20" value="" style="shape=tableRow;horizontal=0;startSize=0;swimlaneHead=0;swimlaneBody=0;fillColor=none;collapsible=0;dropTarget=0;points=[[0,0.5],[1,0.5]];portConstraint=eastwest;top=0;left=0;right=0;bottom=0;" parent="oXegIh3aJyW66HYwS0G9-16" vertex="1">
          <mxGeometry y="60" width="180" height="30" as="geometry" />
        </mxCell>
        <mxCell id="oXegIh3aJyW66HYwS0G9-21" value="" style="shape=partialRectangle;connectable=0;fillColor=none;top=0;left=0;bottom=0;right=0;editable=1;overflow=hidden;" parent="oXegIh3aJyW66HYwS0G9-20" vertex="1">
          <mxGeometry width="30" height="30" as="geometry">
            <mxRectangle width="30" height="30" as="alternateBounds" />
          </mxGeometry>
        </mxCell>
        <mxCell id="oXegIh3aJyW66HYwS0G9-22" value="user_id" style="shape=partialRectangle;connectable=0;fillColor=none;top=0;left=0;bottom=0;right=0;align=left;spacingLeft=6;overflow=hidden;" parent="oXegIh3aJyW66HYwS0G9-20" vertex="1">
          <mxGeometry x="30" width="150" height="30" as="geometry">
            <mxRectangle width="150" height="30" as="alternateBounds" />
          </mxGeometry>
        </mxCell>
        <mxCell id="oXegIh3aJyW66HYwS0G9-23" value="" style="shape=tableRow;horizontal=0;startSize=0;swimlaneHead=0;swimlaneBody=0;fillColor=none;collapsible=0;dropTarget=0;points=[[0,0.5],[1,0.5]];portConstraint=eastwest;top=0;left=0;right=0;bottom=0;" parent="oXegIh3aJyW66HYwS0G9-16" vertex="1">
          <mxGeometry y="90" width="180" height="30" as="geometry" />
        </mxCell>
        <mxCell id="oXegIh3aJyW66HYwS0G9-24" value="" style="shape=partialRectangle;connectable=0;fillColor=none;top=0;left=0;bottom=0;right=0;editable=1;overflow=hidden;" parent="oXegIh3aJyW66HYwS0G9-23" vertex="1">
          <mxGeometry width="30" height="30" as="geometry">
            <mxRectangle width="30" height="30" as="alternateBounds" />
          </mxGeometry>
        </mxCell>
        <mxCell id="oXegIh3aJyW66HYwS0G9-25" value="follower_id" style="shape=partialRectangle;connectable=0;fillColor=none;top=0;left=0;bottom=0;right=0;align=left;spacingLeft=6;overflow=hidden;" parent="oXegIh3aJyW66HYwS0G9-23" vertex="1">
          <mxGeometry x="30" width="150" height="30" as="geometry">
            <mxRectangle width="150" height="30" as="alternateBounds" />
          </mxGeometry>
        </mxCell>
        <mxCell id="oXegIh3aJyW66HYwS0G9-26" value="" style="shape=tableRow;horizontal=0;startSize=0;swimlaneHead=0;swimlaneBody=0;fillColor=none;collapsible=0;dropTarget=0;points=[[0,0.5],[1,0.5]];portConstraint=eastwest;top=0;left=0;right=0;bottom=0;" parent="oXegIh3aJyW66HYwS0G9-16" vertex="1">
          <mxGeometry y="120" width="180" height="30" as="geometry" />
        </mxCell>
        <mxCell id="oXegIh3aJyW66HYwS0G9-27" value="" style="shape=partialRectangle;connectable=0;fillColor=none;top=0;left=0;bottom=0;right=0;editable=1;overflow=hidden;" parent="oXegIh3aJyW66HYwS0G9-26" vertex="1">
          <mxGeometry width="30" height="30" as="geometry">
            <mxRectangle width="30" height="30" as="alternateBounds" />
          </mxGeometry>
        </mxCell>
        <mxCell id="oXegIh3aJyW66HYwS0G9-28" value="" style="shape=partialRectangle;connectable=0;fillColor=none;top=0;left=0;bottom=0;right=0;align=left;spacingLeft=6;overflow=hidden;" parent="oXegIh3aJyW66HYwS0G9-26" vertex="1">
          <mxGeometry x="30" width="150" height="30" as="geometry">
            <mxRectangle width="150" height="30" as="alternateBounds" />
          </mxGeometry>
        </mxCell>
        <mxCell id="oXegIh3aJyW66HYwS0G9-29" value="" style="edgeStyle=entityRelationEdgeStyle;fontSize=12;html=1;endArrow=ERzeroToMany;startArrow=ERmandOne;rounded=0;exitX=1.006;exitY=0.1;exitDx=0;exitDy=0;entryX=0;entryY=0.133;entryDx=0;entryDy=0;entryPerimeter=0;exitPerimeter=0;" parent="1" source="oXegIh3aJyW66HYwS0G9-3" target="oXegIh3aJyW66HYwS0G9-16" edge="1">
          <mxGeometry width="100" height="100" relative="1" as="geometry">
            <mxPoint x="450" y="600" as="sourcePoint" />
            <mxPoint x="550" y="500" as="targetPoint" />
          </mxGeometry>
        </mxCell>
        <mxCell id="oXegIh3aJyW66HYwS0G9-30" value="Feed" style="shape=table;startSize=30;container=1;collapsible=1;childLayout=tableLayout;fixedRows=1;rowLines=0;fontStyle=1;align=center;resizeLast=1;" parent="1" vertex="1">
          <mxGeometry x="60" y="565" width="180" height="160" as="geometry" />
        </mxCell>
        <mxCell id="oXegIh3aJyW66HYwS0G9-31" value="" style="shape=tableRow;horizontal=0;startSize=0;swimlaneHead=0;swimlaneBody=0;fillColor=none;collapsible=0;dropTarget=0;points=[[0,0.5],[1,0.5]];portConstraint=eastwest;top=0;left=0;right=0;bottom=1;" parent="oXegIh3aJyW66HYwS0G9-30" vertex="1">
          <mxGeometry y="30" width="180" height="30" as="geometry" />
        </mxCell>
        <mxCell id="oXegIh3aJyW66HYwS0G9-32" value="PK" style="shape=partialRectangle;connectable=0;fillColor=none;top=0;left=0;bottom=0;right=0;fontStyle=1;overflow=hidden;" parent="oXegIh3aJyW66HYwS0G9-31" vertex="1">
          <mxGeometry width="30" height="30" as="geometry">
            <mxRectangle width="30" height="30" as="alternateBounds" />
          </mxGeometry>
        </mxCell>
        <mxCell id="oXegIh3aJyW66HYwS0G9-33" value="UniqueID" style="shape=partialRectangle;connectable=0;fillColor=none;top=0;left=0;bottom=0;right=0;align=left;spacingLeft=6;fontStyle=5;overflow=hidden;" parent="oXegIh3aJyW66HYwS0G9-31" vertex="1">
          <mxGeometry x="30" width="150" height="30" as="geometry">
            <mxRectangle width="150" height="30" as="alternateBounds" />
          </mxGeometry>
        </mxCell>
        <mxCell id="oXegIh3aJyW66HYwS0G9-34" value="" style="shape=tableRow;horizontal=0;startSize=0;swimlaneHead=0;swimlaneBody=0;fillColor=none;collapsible=0;dropTarget=0;points=[[0,0.5],[1,0.5]];portConstraint=eastwest;top=0;left=0;right=0;bottom=0;" parent="oXegIh3aJyW66HYwS0G9-30" vertex="1">
          <mxGeometry y="60" width="180" height="30" as="geometry" />
        </mxCell>
        <mxCell id="oXegIh3aJyW66HYwS0G9-35" value="" style="shape=partialRectangle;connectable=0;fillColor=none;top=0;left=0;bottom=0;right=0;editable=1;overflow=hidden;" parent="oXegIh3aJyW66HYwS0G9-34" vertex="1">
          <mxGeometry width="30" height="30" as="geometry">
            <mxRectangle width="30" height="30" as="alternateBounds" />
          </mxGeometry>
        </mxCell>
        <mxCell id="oXegIh3aJyW66HYwS0G9-36" value="user_id" style="shape=partialRectangle;connectable=0;fillColor=none;top=0;left=0;bottom=0;right=0;align=left;spacingLeft=6;overflow=hidden;" parent="oXegIh3aJyW66HYwS0G9-34" vertex="1">
          <mxGeometry x="30" width="150" height="30" as="geometry">
            <mxRectangle width="150" height="30" as="alternateBounds" />
          </mxGeometry>
        </mxCell>
        <mxCell id="oXegIh3aJyW66HYwS0G9-37" value="" style="shape=tableRow;horizontal=0;startSize=0;swimlaneHead=0;swimlaneBody=0;fillColor=none;collapsible=0;dropTarget=0;points=[[0,0.5],[1,0.5]];portConstraint=eastwest;top=0;left=0;right=0;bottom=0;" parent="oXegIh3aJyW66HYwS0G9-30" vertex="1">
          <mxGeometry y="90" width="180" height="30" as="geometry" />
        </mxCell>
        <mxCell id="oXegIh3aJyW66HYwS0G9-38" value="" style="shape=partialRectangle;connectable=0;fillColor=none;top=0;left=0;bottom=0;right=0;editable=1;overflow=hidden;" parent="oXegIh3aJyW66HYwS0G9-37" vertex="1">
          <mxGeometry width="30" height="30" as="geometry">
            <mxRectangle width="30" height="30" as="alternateBounds" />
          </mxGeometry>
        </mxCell>
        <mxCell id="oXegIh3aJyW66HYwS0G9-39" value="post_id" style="shape=partialRectangle;connectable=0;fillColor=none;top=0;left=0;bottom=0;right=0;align=left;spacingLeft=6;overflow=hidden;" parent="oXegIh3aJyW66HYwS0G9-37" vertex="1">
          <mxGeometry x="30" width="150" height="30" as="geometry">
            <mxRectangle width="150" height="30" as="alternateBounds" />
          </mxGeometry>
        </mxCell>
        <mxCell id="oXegIh3aJyW66HYwS0G9-40" value="" style="shape=tableRow;horizontal=0;startSize=0;swimlaneHead=0;swimlaneBody=0;fillColor=none;collapsible=0;dropTarget=0;points=[[0,0.5],[1,0.5]];portConstraint=eastwest;top=0;left=0;right=0;bottom=0;" parent="oXegIh3aJyW66HYwS0G9-30" vertex="1">
          <mxGeometry y="120" width="180" height="30" as="geometry" />
        </mxCell>
        <mxCell id="oXegIh3aJyW66HYwS0G9-41" value="" style="shape=partialRectangle;connectable=0;fillColor=none;top=0;left=0;bottom=0;right=0;editable=1;overflow=hidden;" parent="oXegIh3aJyW66HYwS0G9-40" vertex="1">
          <mxGeometry width="30" height="30" as="geometry">
            <mxRectangle width="30" height="30" as="alternateBounds" />
          </mxGeometry>
        </mxCell>
        <mxCell id="oXegIh3aJyW66HYwS0G9-42" value="" style="shape=partialRectangle;connectable=0;fillColor=none;top=0;left=0;bottom=0;right=0;align=left;spacingLeft=6;overflow=hidden;" parent="oXegIh3aJyW66HYwS0G9-40" vertex="1">
          <mxGeometry x="30" width="150" height="30" as="geometry">
            <mxRectangle width="150" height="30" as="alternateBounds" />
          </mxGeometry>
        </mxCell>
        <mxCell id="oXegIh3aJyW66HYwS0G9-44" value="Post" style="shape=table;startSize=30;container=1;collapsible=1;childLayout=tableLayout;fixedRows=1;rowLines=0;fontStyle=1;align=center;resizeLast=1;" parent="1" vertex="1">
          <mxGeometry x="60" y="780" width="180" height="210" as="geometry" />
        </mxCell>
        <mxCell id="oXegIh3aJyW66HYwS0G9-45" value="" style="shape=tableRow;horizontal=0;startSize=0;swimlaneHead=0;swimlaneBody=0;fillColor=none;collapsible=0;dropTarget=0;points=[[0,0.5],[1,0.5]];portConstraint=eastwest;top=0;left=0;right=0;bottom=1;" parent="oXegIh3aJyW66HYwS0G9-44" vertex="1">
          <mxGeometry y="30" width="180" height="30" as="geometry" />
        </mxCell>
        <mxCell id="oXegIh3aJyW66HYwS0G9-46" value="PK" style="shape=partialRectangle;connectable=0;fillColor=none;top=0;left=0;bottom=0;right=0;fontStyle=1;overflow=hidden;" parent="oXegIh3aJyW66HYwS0G9-45" vertex="1">
          <mxGeometry width="30" height="30" as="geometry">
            <mxRectangle width="30" height="30" as="alternateBounds" />
          </mxGeometry>
        </mxCell>
        <mxCell id="oXegIh3aJyW66HYwS0G9-47" value="post_id" style="shape=partialRectangle;connectable=0;fillColor=none;top=0;left=0;bottom=0;right=0;align=left;spacingLeft=6;fontStyle=5;overflow=hidden;" parent="oXegIh3aJyW66HYwS0G9-45" vertex="1">
          <mxGeometry x="30" width="150" height="30" as="geometry">
            <mxRectangle width="150" height="30" as="alternateBounds" />
          </mxGeometry>
        </mxCell>
        <mxCell id="oXegIh3aJyW66HYwS0G9-48" value="" style="shape=tableRow;horizontal=0;startSize=0;swimlaneHead=0;swimlaneBody=0;fillColor=none;collapsible=0;dropTarget=0;points=[[0,0.5],[1,0.5]];portConstraint=eastwest;top=0;left=0;right=0;bottom=0;" parent="oXegIh3aJyW66HYwS0G9-44" vertex="1">
          <mxGeometry y="60" width="180" height="30" as="geometry" />
        </mxCell>
        <mxCell id="oXegIh3aJyW66HYwS0G9-49" value="" style="shape=partialRectangle;connectable=0;fillColor=none;top=0;left=0;bottom=0;right=0;editable=1;overflow=hidden;" parent="oXegIh3aJyW66HYwS0G9-48" vertex="1">
          <mxGeometry width="30" height="30" as="geometry">
            <mxRectangle width="30" height="30" as="alternateBounds" />
          </mxGeometry>
        </mxCell>
        <mxCell id="oXegIh3aJyW66HYwS0G9-50" value="type" style="shape=partialRectangle;connectable=0;fillColor=none;top=0;left=0;bottom=0;right=0;align=left;spacingLeft=6;overflow=hidden;" parent="oXegIh3aJyW66HYwS0G9-48" vertex="1">
          <mxGeometry x="30" width="150" height="30" as="geometry">
            <mxRectangle width="150" height="30" as="alternateBounds" />
          </mxGeometry>
        </mxCell>
        <mxCell id="oXegIh3aJyW66HYwS0G9-51" value="" style="shape=tableRow;horizontal=0;startSize=0;swimlaneHead=0;swimlaneBody=0;fillColor=none;collapsible=0;dropTarget=0;points=[[0,0.5],[1,0.5]];portConstraint=eastwest;top=0;left=0;right=0;bottom=0;" parent="oXegIh3aJyW66HYwS0G9-44" vertex="1">
          <mxGeometry y="90" width="180" height="30" as="geometry" />
        </mxCell>
        <mxCell id="oXegIh3aJyW66HYwS0G9-52" value="" style="shape=partialRectangle;connectable=0;fillColor=none;top=0;left=0;bottom=0;right=0;editable=1;overflow=hidden;" parent="oXegIh3aJyW66HYwS0G9-51" vertex="1">
          <mxGeometry width="30" height="30" as="geometry">
            <mxRectangle width="30" height="30" as="alternateBounds" />
          </mxGeometry>
        </mxCell>
        <mxCell id="oXegIh3aJyW66HYwS0G9-53" value="content" style="shape=partialRectangle;connectable=0;fillColor=none;top=0;left=0;bottom=0;right=0;align=left;spacingLeft=6;overflow=hidden;" parent="oXegIh3aJyW66HYwS0G9-51" vertex="1">
          <mxGeometry x="30" width="150" height="30" as="geometry">
            <mxRectangle width="150" height="30" as="alternateBounds" />
          </mxGeometry>
        </mxCell>
        <mxCell id="oXegIh3aJyW66HYwS0G9-54" value="" style="shape=tableRow;horizontal=0;startSize=0;swimlaneHead=0;swimlaneBody=0;fillColor=none;collapsible=0;dropTarget=0;points=[[0,0.5],[1,0.5]];portConstraint=eastwest;top=0;left=0;right=0;bottom=0;" parent="oXegIh3aJyW66HYwS0G9-44" vertex="1">
          <mxGeometry y="120" width="180" height="30" as="geometry" />
        </mxCell>
        <mxCell id="oXegIh3aJyW66HYwS0G9-55" value="" style="shape=partialRectangle;connectable=0;fillColor=none;top=0;left=0;bottom=0;right=0;editable=1;overflow=hidden;" parent="oXegIh3aJyW66HYwS0G9-54" vertex="1">
          <mxGeometry width="30" height="30" as="geometry">
            <mxRectangle width="30" height="30" as="alternateBounds" />
          </mxGeometry>
        </mxCell>
        <mxCell id="oXegIh3aJyW66HYwS0G9-56" value="" style="shape=partialRectangle;connectable=0;fillColor=none;top=0;left=0;bottom=0;right=0;align=left;spacingLeft=6;overflow=hidden;" parent="oXegIh3aJyW66HYwS0G9-54" vertex="1">
          <mxGeometry x="30" width="150" height="30" as="geometry">
            <mxRectangle width="150" height="30" as="alternateBounds" />
          </mxGeometry>
        </mxCell>
        <mxCell id="oXegIh3aJyW66HYwS0G9-57" value="timestamp" style="shape=partialRectangle;connectable=0;fillColor=none;top=0;left=0;bottom=0;right=0;align=left;spacingLeft=6;overflow=hidden;" parent="1" vertex="1">
          <mxGeometry x="90" y="940" width="150" height="30" as="geometry">
            <mxRectangle width="150" height="30" as="alternateBounds" />
          </mxGeometry>
        </mxCell>
        <mxCell id="oXegIh3aJyW66HYwS0G9-59" value="media_id" style="shape=partialRectangle;connectable=0;fillColor=none;top=0;left=0;bottom=0;right=0;align=left;spacingLeft=6;overflow=hidden;" parent="1" vertex="1">
          <mxGeometry x="90" y="905" width="150" height="30" as="geometry">
            <mxRectangle width="150" height="30" as="alternateBounds" />
          </mxGeometry>
        </mxCell>
        <mxCell id="oXegIh3aJyW66HYwS0G9-60" value="joined on" style="shape=partialRectangle;connectable=0;fillColor=none;top=0;left=0;bottom=0;right=0;align=left;spacingLeft=6;overflow=hidden;" parent="1" vertex="1">
          <mxGeometry x="90" y="370" width="150" height="30" as="geometry">
            <mxRectangle width="150" height="30" as="alternateBounds" />
          </mxGeometry>
        </mxCell>
        <mxCell id="oXegIh3aJyW66HYwS0G9-61" value="profile_photo_id" style="shape=partialRectangle;connectable=0;fillColor=none;top=0;left=0;bottom=0;right=0;align=left;spacingLeft=6;overflow=hidden;" parent="1" vertex="1">
          <mxGeometry x="90" y="400" width="150" height="30" as="geometry">
            <mxRectangle width="150" height="30" as="alternateBounds" />
          </mxGeometry>
        </mxCell>
        <mxCell id="oXegIh3aJyW66HYwS0G9-62" value="profile_photo" style="shape=table;startSize=30;container=1;collapsible=1;childLayout=tableLayout;fixedRows=1;rowLines=0;fontStyle=1;align=center;resizeLast=1;" parent="1" vertex="1">
          <mxGeometry x="370" y="460" width="180" height="280" as="geometry" />
        </mxCell>
        <mxCell id="oXegIh3aJyW66HYwS0G9-63" value="" style="shape=tableRow;horizontal=0;startSize=0;swimlaneHead=0;swimlaneBody=0;fillColor=none;collapsible=0;dropTarget=0;points=[[0,0.5],[1,0.5]];portConstraint=eastwest;top=0;left=0;right=0;bottom=1;" parent="oXegIh3aJyW66HYwS0G9-62" vertex="1">
          <mxGeometry y="30" width="180" height="30" as="geometry" />
        </mxCell>
        <mxCell id="oXegIh3aJyW66HYwS0G9-64" value="PK" style="shape=partialRectangle;connectable=0;fillColor=none;top=0;left=0;bottom=0;right=0;fontStyle=1;overflow=hidden;" parent="oXegIh3aJyW66HYwS0G9-63" vertex="1">
          <mxGeometry width="30" height="30" as="geometry">
            <mxRectangle width="30" height="30" as="alternateBounds" />
          </mxGeometry>
        </mxCell>
        <mxCell id="oXegIh3aJyW66HYwS0G9-65" value="ProfilePhotoId" style="shape=partialRectangle;connectable=0;fillColor=none;top=0;left=0;bottom=0;right=0;align=left;spacingLeft=6;fontStyle=5;overflow=hidden;" parent="oXegIh3aJyW66HYwS0G9-63" vertex="1">
          <mxGeometry x="30" width="150" height="30" as="geometry">
            <mxRectangle width="150" height="30" as="alternateBounds" />
          </mxGeometry>
        </mxCell>
        <mxCell id="oXegIh3aJyW66HYwS0G9-66" value="" style="shape=tableRow;horizontal=0;startSize=0;swimlaneHead=0;swimlaneBody=0;fillColor=none;collapsible=0;dropTarget=0;points=[[0,0.5],[1,0.5]];portConstraint=eastwest;top=0;left=0;right=0;bottom=0;" parent="oXegIh3aJyW66HYwS0G9-62" vertex="1">
          <mxGeometry y="60" width="180" height="30" as="geometry" />
        </mxCell>
        <mxCell id="oXegIh3aJyW66HYwS0G9-67" value="" style="shape=partialRectangle;connectable=0;fillColor=none;top=0;left=0;bottom=0;right=0;editable=1;overflow=hidden;" parent="oXegIh3aJyW66HYwS0G9-66" vertex="1">
          <mxGeometry width="30" height="30" as="geometry">
            <mxRectangle width="30" height="30" as="alternateBounds" />
          </mxGeometry>
        </mxCell>
        <mxCell id="oXegIh3aJyW66HYwS0G9-68" value="storage_url" style="shape=partialRectangle;connectable=0;fillColor=none;top=0;left=0;bottom=0;right=0;align=left;spacingLeft=6;overflow=hidden;" parent="oXegIh3aJyW66HYwS0G9-66" vertex="1">
          <mxGeometry x="30" width="150" height="30" as="geometry">
            <mxRectangle width="150" height="30" as="alternateBounds" />
          </mxGeometry>
        </mxCell>
        <mxCell id="oXegIh3aJyW66HYwS0G9-69" value="" style="shape=tableRow;horizontal=0;startSize=0;swimlaneHead=0;swimlaneBody=0;fillColor=none;collapsible=0;dropTarget=0;points=[[0,0.5],[1,0.5]];portConstraint=eastwest;top=0;left=0;right=0;bottom=0;" parent="oXegIh3aJyW66HYwS0G9-62" vertex="1">
          <mxGeometry y="90" width="180" height="30" as="geometry" />
        </mxCell>
        <mxCell id="oXegIh3aJyW66HYwS0G9-70" value="" style="shape=partialRectangle;connectable=0;fillColor=none;top=0;left=0;bottom=0;right=0;editable=1;overflow=hidden;" parent="oXegIh3aJyW66HYwS0G9-69" vertex="1">
          <mxGeometry width="30" height="30" as="geometry">
            <mxRectangle width="30" height="30" as="alternateBounds" />
          </mxGeometry>
        </mxCell>
        <mxCell id="oXegIh3aJyW66HYwS0G9-71" value="timestamp" style="shape=partialRectangle;connectable=0;fillColor=none;top=0;left=0;bottom=0;right=0;align=left;spacingLeft=6;overflow=hidden;" parent="oXegIh3aJyW66HYwS0G9-69" vertex="1">
          <mxGeometry x="30" width="150" height="30" as="geometry">
            <mxRectangle width="150" height="30" as="alternateBounds" />
          </mxGeometry>
        </mxCell>
        <mxCell id="oXegIh3aJyW66HYwS0G9-72" value="" style="shape=tableRow;horizontal=0;startSize=0;swimlaneHead=0;swimlaneBody=0;fillColor=none;collapsible=0;dropTarget=0;points=[[0,0.5],[1,0.5]];portConstraint=eastwest;top=0;left=0;right=0;bottom=0;" parent="oXegIh3aJyW66HYwS0G9-62" vertex="1">
          <mxGeometry y="120" width="180" height="30" as="geometry" />
        </mxCell>
        <mxCell id="oXegIh3aJyW66HYwS0G9-73" value="" style="shape=partialRectangle;connectable=0;fillColor=none;top=0;left=0;bottom=0;right=0;editable=1;overflow=hidden;" parent="oXegIh3aJyW66HYwS0G9-72" vertex="1">
          <mxGeometry width="30" height="30" as="geometry">
            <mxRectangle width="30" height="30" as="alternateBounds" />
          </mxGeometry>
        </mxCell>
        <mxCell id="oXegIh3aJyW66HYwS0G9-74" value="is_active" style="shape=partialRectangle;connectable=0;fillColor=none;top=0;left=0;bottom=0;right=0;align=left;spacingLeft=6;overflow=hidden;" parent="oXegIh3aJyW66HYwS0G9-72" vertex="1">
          <mxGeometry x="30" width="150" height="30" as="geometry">
            <mxRectangle width="150" height="30" as="alternateBounds" />
          </mxGeometry>
        </mxCell>
        <mxCell id="oXegIh3aJyW66HYwS0G9-75" value="user_id" style="shape=partialRectangle;connectable=0;fillColor=none;top=0;left=0;bottom=0;right=0;align=left;spacingLeft=6;overflow=hidden;" parent="1" vertex="1">
          <mxGeometry x="390" y="620" width="150" height="30" as="geometry">
            <mxRectangle width="150" height="30" as="alternateBounds" />
          </mxGeometry>
        </mxCell>
        <mxCell id="oXegIh3aJyW66HYwS0G9-76" value="" style="edgeStyle=entityRelationEdgeStyle;fontSize=12;html=1;endArrow=ERoneToMany;startArrow=ERmandOne;rounded=0;" parent="1" source="oXegIh3aJyW66HYwS0G9-3" target="oXegIh3aJyW66HYwS0G9-62" edge="1">
          <mxGeometry width="100" height="100" relative="1" as="geometry">
            <mxPoint x="250" y="480" as="sourcePoint" />
            <mxPoint x="350" y="380" as="targetPoint" />
          </mxGeometry>
        </mxCell>
        <mxCell id="oXegIh3aJyW66HYwS0G9-77" value="feed_id" style="shape=partialRectangle;connectable=0;fillColor=none;top=0;left=0;bottom=0;right=0;align=left;spacingLeft=6;overflow=hidden;" parent="1" vertex="1">
          <mxGeometry x="90" y="430" width="150" height="30" as="geometry">
            <mxRectangle width="150" height="30" as="alternateBounds" />
          </mxGeometry>
        </mxCell>
        <mxCell id="oXegIh3aJyW66HYwS0G9-78" value="" style="edgeStyle=entityRelationEdgeStyle;fontSize=12;html=1;endArrow=ERzeroToMany;startArrow=ERmandOne;rounded=0;" parent="1" source="oXegIh3aJyW66HYwS0G9-37" target="oXegIh3aJyW66HYwS0G9-44" edge="1">
          <mxGeometry width="100" height="100" relative="1" as="geometry">
            <mxPoint x="280" y="750" as="sourcePoint" />
            <mxPoint x="380" y="650" as="targetPoint" />
          </mxGeometry>
        </mxCell>
        <mxCell id="oXegIh3aJyW66HYwS0G9-79" value="" style="edgeStyle=entityRelationEdgeStyle;fontSize=12;html=1;endArrow=ERmandOne;startArrow=ERmandOne;rounded=0;entryX=0;entryY=0.75;entryDx=0;entryDy=0;exitX=0.5;exitY=0;exitDx=0;exitDy=0;" parent="1" source="oXegIh3aJyW66HYwS0G9-30" target="oXegIh3aJyW66HYwS0G9-3" edge="1">
          <mxGeometry width="100" height="100" relative="1" as="geometry">
            <mxPoint x="60" y="630" as="sourcePoint" />
            <mxPoint x="160" y="530" as="targetPoint" />
          </mxGeometry>
        </mxCell>
        <mxCell id="oXegIh3aJyW66HYwS0G9-80" value="LB" style="rounded=1;whiteSpace=wrap;html=1;fillColor=#ffe6cc;strokeColor=#d79b00;" parent="1" vertex="1">
          <mxGeometry x="290" y="1169" width="120" height="60" as="geometry" />
        </mxCell>
        <mxCell id="oXegIh3aJyW66HYwS0G9-82" value="API Servers" style="ellipse;whiteSpace=wrap;html=1;aspect=fixed;fillColor=#d5e8d4;strokeColor=#82b366;" parent="1" vertex="1">
          <mxGeometry x="130" y="1290" width="80" height="80" as="geometry" />
        </mxCell>
        <mxCell id="oXegIh3aJyW66HYwS0G9-83" value="API Servers" style="ellipse;whiteSpace=wrap;html=1;aspect=fixed;fillColor=#d5e8d4;strokeColor=#82b366;" parent="1" vertex="1">
          <mxGeometry x="290" y="1290" width="80" height="80" as="geometry" />
        </mxCell>
        <mxCell id="oXegIh3aJyW66HYwS0G9-84" value="API Servers" style="ellipse;whiteSpace=wrap;html=1;aspect=fixed;fillColor=#d5e8d4;strokeColor=#82b366;" parent="1" vertex="1">
          <mxGeometry x="550" y="1300" width="80" height="80" as="geometry" />
        </mxCell>
        <mxCell id="oXegIh3aJyW66HYwS0G9-86" value="" style="endArrow=classic;html=1;rounded=0;entryX=0.5;entryY=0;entryDx=0;entryDy=0;edgeStyle=orthogonalEdgeStyle;" parent="1" source="oXegIh3aJyW66HYwS0G9-80" target="oXegIh3aJyW66HYwS0G9-82" edge="1">
          <mxGeometry width="50" height="50" relative="1" as="geometry">
            <mxPoint x="120" y="1280" as="sourcePoint" />
            <mxPoint x="170" y="1230" as="targetPoint" />
          </mxGeometry>
        </mxCell>
        <mxCell id="oXegIh3aJyW66HYwS0G9-87" value="" style="endArrow=classic;html=1;rounded=0;edgeStyle=orthogonalEdgeStyle;" parent="1" source="oXegIh3aJyW66HYwS0G9-80" target="oXegIh3aJyW66HYwS0G9-83" edge="1">
          <mxGeometry width="50" height="50" relative="1" as="geometry">
            <mxPoint x="247.032967032967" y="1239" as="sourcePoint" />
            <mxPoint x="180" y="1300" as="targetPoint" />
          </mxGeometry>
        </mxCell>
        <mxCell id="oXegIh3aJyW66HYwS0G9-88" value="" style="endArrow=classic;html=1;rounded=0;exitX=0.75;exitY=1;exitDx=0;exitDy=0;edgeStyle=orthogonalEdgeStyle;entryX=0.5;entryY=0;entryDx=0;entryDy=0;" parent="1" source="oXegIh3aJyW66HYwS0G9-80" target="oXegIh3aJyW66HYwS0G9-84" edge="1">
          <mxGeometry width="50" height="50" relative="1" as="geometry">
            <mxPoint x="257.032967032967" y="1249" as="sourcePoint" />
            <mxPoint x="590" y="1290" as="targetPoint" />
          </mxGeometry>
        </mxCell>
        <mxCell id="FxFDfvUKGRwIUdRoIgsq-19" value="getFeed(profile_id)" style="edgeLabel;html=1;align=center;verticalAlign=middle;resizable=0;points=[];fontSize=11;" vertex="1" connectable="0" parent="oXegIh3aJyW66HYwS0G9-88">
          <mxGeometry x="-0.1566" y="2" relative="1" as="geometry">
            <mxPoint x="1" y="1" as="offset" />
          </mxGeometry>
        </mxCell>
        <mxCell id="oXegIh3aJyW66HYwS0G9-89" value="" style="rounded=1;whiteSpace=wrap;html=1;fillColor=#dae8fc;strokeColor=#6c8ebf;" parent="1" vertex="1">
          <mxGeometry x="445" y="1480" width="202" height="90" as="geometry" />
        </mxCell>
        <mxCell id="oXegIh3aJyW66HYwS0G9-90" value="" style="rounded=1;whiteSpace=wrap;html=1;fillColor=#dae8fc;strokeColor=#6c8ebf;" parent="1" vertex="1">
          <mxGeometry x="110" y="1460" width="120" height="150" as="geometry" />
        </mxCell>
        <mxCell id="oXegIh3aJyW66HYwS0G9-91" value="getProfile(profile_id)" style="text;html=1;strokeColor=#666666;fillColor=#f5f5f5;align=center;verticalAlign=middle;whiteSpace=wrap;rounded=0;shadow=0;dashed=1;fontColor=#333333;" parent="1" vertex="1">
          <mxGeometry x="40" y="1229" width="120" height="30" as="geometry" />
        </mxCell>
        <mxCell id="oXegIh3aJyW66HYwS0G9-95" value="" style="endArrow=classic;html=1;rounded=0;exitX=1;exitY=0.5;exitDx=0;exitDy=0;edgeStyle=orthogonalEdgeStyle;startArrow=none;entryX=0.5;entryY=0;entryDx=0;entryDy=0;" parent="1" source="oXegIh3aJyW66HYwS0G9-83" target="FxFDfvUKGRwIUdRoIgsq-32" edge="1">
          <mxGeometry width="50" height="50" relative="1" as="geometry">
            <mxPoint x="400" y="1380" as="sourcePoint" />
            <mxPoint x="460" y="1330" as="targetPoint" />
            <Array as="points" />
          </mxGeometry>
        </mxCell>
        <mxCell id="oXegIh3aJyW66HYwS0G9-96" value="" style="endArrow=classic;html=1;rounded=0;exitX=0.5;exitY=1;exitDx=0;exitDy=0;edgeStyle=orthogonalEdgeStyle;entryX=-0.025;entryY=0.817;entryDx=0;entryDy=0;entryPerimeter=0;" parent="1" source="oXegIh3aJyW66HYwS0G9-84" target="FxFDfvUKGRwIUdRoIgsq-6" edge="1">
          <mxGeometry width="50" height="50" relative="1" as="geometry">
            <mxPoint x="371.71572875253787" y="1368.2842712474621" as="sourcePoint" />
            <mxPoint x="230" y="1500" as="targetPoint" />
            <Array as="points">
              <mxPoint x="590" y="1420" />
              <mxPoint x="620" y="1420" />
              <mxPoint x="620" y="1398" />
            </Array>
          </mxGeometry>
        </mxCell>
        <mxCell id="oXegIh3aJyW66HYwS0G9-97" value="" style="endArrow=classic;html=1;rounded=0;edgeStyle=orthogonalEdgeStyle;" parent="1" source="oXegIh3aJyW66HYwS0G9-82" target="oXegIh3aJyW66HYwS0G9-90" edge="1">
          <mxGeometry width="50" height="50" relative="1" as="geometry">
            <mxPoint x="381.71572875253787" y="1378.2842712474621" as="sourcePoint" />
            <mxPoint x="229.80461003760297" y="1480" as="targetPoint" />
          </mxGeometry>
        </mxCell>
        <mxCell id="oXegIh3aJyW66HYwS0G9-98" value="1.1" style="ellipse;whiteSpace=wrap;html=1;aspect=fixed;shadow=0;dashed=1;strokeColor=#0F0800;fillColor=#FFFFFF;" parent="1" vertex="1">
          <mxGeometry y="1224" width="40" height="40" as="geometry" />
        </mxCell>
        <mxCell id="oXegIh3aJyW66HYwS0G9-100" value="1.2" style="ellipse;whiteSpace=wrap;html=1;aspect=fixed;shadow=0;dashed=1;strokeColor=#0F0800;fillColor=#FFFFFF;" parent="1" vertex="1">
          <mxGeometry x="120" y="1390" width="40" height="40" as="geometry" />
        </mxCell>
        <mxCell id="oXegIh3aJyW66HYwS0G9-101" value="2.1" style="ellipse;whiteSpace=wrap;html=1;aspect=fixed;shadow=0;dashed=1;strokeColor=#0F0800;fillColor=#FFFFFF;" parent="1" vertex="1">
          <mxGeometry x="430" y="1224" width="31" height="31" as="geometry" />
        </mxCell>
        <mxCell id="oXegIh3aJyW66HYwS0G9-102" value="2.2" style="ellipse;whiteSpace=wrap;html=1;aspect=fixed;shadow=0;dashed=1;strokeColor=#0F0800;fillColor=#FFFFFF;" parent="1" vertex="1">
          <mxGeometry x="560" y="1395" width="39.75" height="39.75" as="geometry" />
        </mxCell>
        <mxCell id="oXegIh3aJyW66HYwS0G9-106" value="updateFeed / Create Post" style="text;html=1;strokeColor=#666666;fillColor=#f5f5f5;align=center;verticalAlign=middle;whiteSpace=wrap;rounded=0;shadow=0;dashed=1;fontColor=#333333;" parent="1" vertex="1">
          <mxGeometry x="225" y="1239" width="120" height="30" as="geometry" />
        </mxCell>
        <mxCell id="oXegIh3aJyW66HYwS0G9-107" value="" style="endArrow=classic;html=1;rounded=0;edgeStyle=orthogonalEdgeStyle;exitX=0.5;exitY=1;exitDx=0;exitDy=0;entryX=0;entryY=0.25;entryDx=0;entryDy=0;" parent="1" source="oXegIh3aJyW66HYwS0G9-83" target="oXegIh3aJyW66HYwS0G9-89" edge="1">
          <mxGeometry width="50" height="50" relative="1" as="geometry">
            <mxPoint x="571.7157287525379" y="1378.2842712474621" as="sourcePoint" />
            <mxPoint x="530" y="1475" as="targetPoint" />
            <Array as="points">
              <mxPoint x="330" y="1500" />
              <mxPoint x="440" y="1500" />
              <mxPoint x="440" y="1503" />
            </Array>
          </mxGeometry>
        </mxCell>
        <mxCell id="oXegIh3aJyW66HYwS0G9-108" value="3.1" style="ellipse;whiteSpace=wrap;html=1;aspect=fixed;shadow=0;dashed=1;strokeColor=#0F0800;fillColor=#FFFFFF;" parent="1" vertex="1">
          <mxGeometry x="185" y="1234" width="40" height="40" as="geometry" />
        </mxCell>
        <mxCell id="oXegIh3aJyW66HYwS0G9-109" value="No of Users&lt;br&gt;" style="text;html=1;strokeColor=none;fillColor=none;align=left;verticalAlign=middle;whiteSpace=wrap;rounded=0;shadow=0;dashed=1;" parent="1" vertex="1">
          <mxGeometry x="45" y="1060" width="305" height="30" as="geometry" />
        </mxCell>
        <mxCell id="FxFDfvUKGRwIUdRoIgsq-39" style="edgeStyle=orthogonalEdgeStyle;rounded=0;orthogonalLoop=1;jettySize=auto;html=1;exitX=1;exitY=0.5;exitDx=0;exitDy=0;fontSize=11;" edge="1" parent="1" source="oXegIh3aJyW66HYwS0G9-111">
          <mxGeometry relative="1" as="geometry">
            <mxPoint x="575" y="1190" as="targetPoint" />
          </mxGeometry>
        </mxCell>
        <mxCell id="oXegIh3aJyW66HYwS0G9-111" value="like_post(post_id" style="text;html=1;strokeColor=#666666;fillColor=#f5f5f5;align=center;verticalAlign=middle;whiteSpace=wrap;rounded=0;shadow=0;dashed=1;fontColor=#333333;" parent="1" vertex="1">
          <mxGeometry x="455" y="1160" width="120" height="30" as="geometry" />
        </mxCell>
        <mxCell id="oXegIh3aJyW66HYwS0G9-112" value="Posts&amp;nbsp;" style="rounded=1;whiteSpace=wrap;html=1;fillColor=#dae8fc;strokeColor=#6c8ebf;" parent="1" vertex="1">
          <mxGeometry x="325" y="1635" width="120" height="90" as="geometry" />
        </mxCell>
        <mxCell id="oXegIh3aJyW66HYwS0G9-113" value="" style="edgeStyle=elbowEdgeStyle;elbow=vertical;endArrow=classic;html=1;rounded=0;" parent="1" source="oXegIh3aJyW66HYwS0G9-89" target="oXegIh3aJyW66HYwS0G9-137" edge="1">
          <mxGeometry width="50" height="50" relative="1" as="geometry">
            <mxPoint x="470" y="1600" as="sourcePoint" />
            <mxPoint x="520" y="1550" as="targetPoint" />
            <Array as="points">
              <mxPoint x="510" y="1590" />
            </Array>
          </mxGeometry>
        </mxCell>
        <mxCell id="oXegIh3aJyW66HYwS0G9-114" value="" style="edgeStyle=elbowEdgeStyle;elbow=horizontal;endArrow=classic;html=1;rounded=0;exitX=1;exitY=0.75;exitDx=0;exitDy=0;entryX=0;entryY=0.5;entryDx=0;entryDy=0;" parent="1" source="oXegIh3aJyW66HYwS0G9-90" target="oXegIh3aJyW66HYwS0G9-89" edge="1">
          <mxGeometry width="50" height="50" relative="1" as="geometry">
            <mxPoint x="120" y="1610" as="sourcePoint" />
            <mxPoint x="170" y="1560" as="targetPoint" />
          </mxGeometry>
        </mxCell>
        <mxCell id="oXegIh3aJyW66HYwS0G9-115" value="Cache" style="rounded=1;whiteSpace=wrap;html=1;shadow=0;dashed=1;strokeColor=#0F0800;fillColor=#FFFFFF;" parent="1" vertex="1">
          <mxGeometry x="460" y="1512" width="70" height="40" as="geometry" />
        </mxCell>
        <mxCell id="oXegIh3aJyW66HYwS0G9-116" value="&lt;meta charset=&quot;utf-8&quot;&gt;&lt;span style=&quot;color: rgb(0, 0, 0); font-family: Helvetica; font-size: 12px; font-style: normal; font-variant-ligatures: normal; font-variant-caps: normal; font-weight: 400; letter-spacing: normal; orphans: 2; text-align: center; text-indent: 0px; text-transform: none; widows: 2; word-spacing: 0px; -webkit-text-stroke-width: 0px; background-color: rgb(248, 249, 250); text-decoration-thickness: initial; text-decoration-style: initial; text-decoration-color: initial; float: none; display: inline !important;&quot;&gt;Feed Service&lt;/span&gt;" style="text;whiteSpace=wrap;html=1;" parent="1" vertex="1">
          <mxGeometry x="570" y="1482" width="100" height="30" as="geometry" />
        </mxCell>
        <mxCell id="oXegIh3aJyW66HYwS0G9-117" value="" style="edgeStyle=elbowEdgeStyle;elbow=vertical;endArrow=classic;html=1;rounded=0;entryX=0.558;entryY=1.015;entryDx=0;entryDy=0;entryPerimeter=0;exitX=0;exitY=0.5;exitDx=0;exitDy=0;dashed=1;" parent="1" source="oXegIh3aJyW66HYwS0G9-112" target="oXegIh3aJyW66HYwS0G9-90" edge="1">
          <mxGeometry width="50" height="50" relative="1" as="geometry">
            <mxPoint x="250" y="1670" as="sourcePoint" />
            <mxPoint x="300" y="1620" as="targetPoint" />
            <Array as="points">
              <mxPoint x="290" y="1660" />
            </Array>
          </mxGeometry>
        </mxCell>
        <mxCell id="FxFDfvUKGRwIUdRoIgsq-24" value="posts" style="edgeLabel;html=1;align=center;verticalAlign=middle;resizable=0;points=[];fontSize=11;labelBorderColor=none;spacingTop=2;spacingLeft=2;spacingBottom=1;spacingRight=1;" vertex="1" connectable="0" parent="oXegIh3aJyW66HYwS0G9-117">
          <mxGeometry x="0.4737" y="-4" relative="1" as="geometry">
            <mxPoint x="34" y="4" as="offset" />
          </mxGeometry>
        </mxCell>
        <mxCell id="oXegIh3aJyW66HYwS0G9-119" value="Ad Service" style="rounded=1;whiteSpace=wrap;html=1;fillColor=#dae8fc;strokeColor=#6c8ebf;" parent="1" vertex="1">
          <mxGeometry x="670" y="1620" width="120" height="120" as="geometry" />
        </mxCell>
        <mxCell id="oXegIh3aJyW66HYwS0G9-120" value="" style="edgeStyle=elbowEdgeStyle;elbow=horizontal;endArrow=classic;html=1;rounded=0;exitX=0;exitY=0.5;exitDx=0;exitDy=0;startArrow=none;" parent="1" source="oXegIh3aJyW66HYwS0G9-121" target="oXegIh3aJyW66HYwS0G9-137" edge="1">
          <mxGeometry width="50" height="50" relative="1" as="geometry">
            <mxPoint x="560" y="1710" as="sourcePoint" />
            <mxPoint x="610" y="1660" as="targetPoint" />
            <Array as="points">
              <mxPoint x="520" y="1680" />
              <mxPoint x="530" y="1680" />
            </Array>
          </mxGeometry>
        </mxCell>
        <mxCell id="oXegIh3aJyW66HYwS0G9-121" value="get relevant ads" style="text;html=1;align=center;verticalAlign=middle;whiteSpace=wrap;rounded=0;shadow=0;dashed=1;fillColor=#f5f5f5;fontColor=#333333;strokeColor=#666666;" parent="1" vertex="1">
          <mxGeometry x="570" y="1647.5" width="60" height="65" as="geometry" />
        </mxCell>
        <mxCell id="oXegIh3aJyW66HYwS0G9-122" value="" style="edgeStyle=elbowEdgeStyle;elbow=horizontal;endArrow=none;html=1;rounded=0;exitX=0;exitY=0.5;exitDx=0;exitDy=0;entryX=1;entryY=0.5;entryDx=0;entryDy=0;" parent="1" source="oXegIh3aJyW66HYwS0G9-119" target="oXegIh3aJyW66HYwS0G9-121" edge="1">
          <mxGeometry width="50" height="50" relative="1" as="geometry">
            <mxPoint x="660" y="1620" as="sourcePoint" />
            <mxPoint x="520" y="1620" as="targetPoint" />
          </mxGeometry>
        </mxCell>
        <mxCell id="oXegIh3aJyW66HYwS0G9-124" value="Cache" style="rounded=1;whiteSpace=wrap;html=1;shadow=0;dashed=1;strokeColor=#0F0800;fillColor=#FFFFFF;" parent="1" vertex="1">
          <mxGeometry x="135" y="1467" width="70" height="60" as="geometry" />
        </mxCell>
        <mxCell id="oXegIh3aJyW66HYwS0G9-125" value="&lt;meta charset=&quot;utf-8&quot;&gt;&lt;span style=&quot;color: rgb(0, 0, 0); font-family: Helvetica; font-size: 12px; font-style: normal; font-variant-ligatures: normal; font-variant-caps: normal; font-weight: 400; letter-spacing: normal; orphans: 2; text-align: center; text-indent: 0px; text-transform: none; widows: 2; word-spacing: 0px; -webkit-text-stroke-width: 0px; background-color: rgb(248, 249, 250); text-decoration-thickness: initial; text-decoration-style: initial; text-decoration-color: initial; float: none; display: inline !important;&quot;&gt;Profile Service&lt;/span&gt;" style="text;whiteSpace=wrap;html=1;fillColor=none;" parent="1" vertex="1">
          <mxGeometry x="130" y="1550" width="100" height="30" as="geometry" />
        </mxCell>
        <mxCell id="oXegIh3aJyW66HYwS0G9-126" value="Persistence Service" style="rounded=1;whiteSpace=wrap;html=1;fillColor=#dae8fc;strokeColor=#6c8ebf;" parent="1" vertex="1">
          <mxGeometry x="130" y="1740" width="120" height="70" as="geometry" />
        </mxCell>
        <mxCell id="oXegIh3aJyW66HYwS0G9-129" value="" style="edgeStyle=elbowEdgeStyle;elbow=vertical;endArrow=classic;html=1;rounded=0;entryX=0.433;entryY=-0.05;entryDx=0;entryDy=0;exitX=-0.017;exitY=0.594;exitDx=0;exitDy=0;entryPerimeter=0;exitPerimeter=0;" parent="1" source="oXegIh3aJyW66HYwS0G9-112" target="oXegIh3aJyW66HYwS0G9-126" edge="1">
          <mxGeometry width="50" height="50" relative="1" as="geometry">
            <mxPoint x="290" y="1790" as="sourcePoint" />
            <mxPoint x="340" y="1740" as="targetPoint" />
            <Array as="points">
              <mxPoint x="260" y="1690" />
            </Array>
          </mxGeometry>
        </mxCell>
        <mxCell id="oXegIh3aJyW66HYwS0G9-130" value="Shards" style="rounded=1;whiteSpace=wrap;html=1;fillColor=#fad7ac;strokeColor=#b46504;" parent="1" vertex="1">
          <mxGeometry x="445" y="1796" width="65" height="50" as="geometry" />
        </mxCell>
        <mxCell id="oXegIh3aJyW66HYwS0G9-131" value="Shards" style="rounded=1;whiteSpace=wrap;html=1;fillColor=#fad7ac;strokeColor=#b46504;" parent="1" vertex="1">
          <mxGeometry x="520" y="1796" width="65" height="50" as="geometry" />
        </mxCell>
        <mxCell id="oXegIh3aJyW66HYwS0G9-132" value="Shards" style="rounded=1;whiteSpace=wrap;html=1;fillColor=#fad7ac;strokeColor=#b46504;" parent="1" vertex="1">
          <mxGeometry x="445" y="1856" width="65" height="50" as="geometry" />
        </mxCell>
        <mxCell id="oXegIh3aJyW66HYwS0G9-133" value="Shards" style="rounded=1;whiteSpace=wrap;html=1;fillColor=#fad7ac;strokeColor=#b46504;" parent="1" vertex="1">
          <mxGeometry x="520" y="1916" width="65" height="50" as="geometry" />
        </mxCell>
        <mxCell id="oXegIh3aJyW66HYwS0G9-134" value="Shards" style="rounded=1;whiteSpace=wrap;html=1;fillColor=#fad7ac;strokeColor=#b46504;" parent="1" vertex="1">
          <mxGeometry x="445" y="1916" width="65" height="50" as="geometry" />
        </mxCell>
        <mxCell id="oXegIh3aJyW66HYwS0G9-135" value="Shards" style="rounded=1;whiteSpace=wrap;html=1;fillColor=#fad7ac;strokeColor=#b46504;" parent="1" vertex="1">
          <mxGeometry x="520" y="1856" width="65" height="50" as="geometry" />
        </mxCell>
        <mxCell id="oXegIh3aJyW66HYwS0G9-138" value="" style="edgeStyle=elbowEdgeStyle;elbow=horizontal;endArrow=classic;html=1;rounded=0;exitX=1.025;exitY=0.664;exitDx=0;exitDy=0;entryX=0;entryY=0.463;entryDx=0;entryDy=0;entryPerimeter=0;exitPerimeter=0;" parent="1" source="oXegIh3aJyW66HYwS0G9-126" target="oXegIh3aJyW66HYwS0G9-137" edge="1">
          <mxGeometry width="50" height="50" relative="1" as="geometry">
            <mxPoint x="200" y="1920" as="sourcePoint" />
            <mxPoint x="250" y="1870" as="targetPoint" />
            <Array as="points">
              <mxPoint x="340" y="1800" />
            </Array>
          </mxGeometry>
        </mxCell>
        <mxCell id="oXegIh3aJyW66HYwS0G9-139" value="Ranking&lt;br&gt;Service" style="rounded=1;whiteSpace=wrap;html=1;fillColor=#dae8fc;strokeColor=#6c8ebf;" parent="1" vertex="1">
          <mxGeometry x="135" y="1870" width="120" height="59" as="geometry" />
        </mxCell>
        <mxCell id="oXegIh3aJyW66HYwS0G9-140" value="" style="edgeStyle=elbowEdgeStyle;elbow=horizontal;endArrow=none;html=1;rounded=0;exitX=0.5;exitY=1;exitDx=0;exitDy=0;startArrow=blockThin;startFill=1;endFill=0;" parent="1" source="oXegIh3aJyW66HYwS0G9-126" edge="1">
          <mxGeometry width="50" height="50" relative="1" as="geometry">
            <mxPoint x="80" y="1880" as="sourcePoint" />
            <mxPoint x="190" y="1869" as="targetPoint" />
            <Array as="points">
              <mxPoint x="190" y="1840" />
            </Array>
          </mxGeometry>
        </mxCell>
        <mxCell id="oXegIh3aJyW66HYwS0G9-141" value="" style="edgeStyle=elbowEdgeStyle;elbow=horizontal;endArrow=classic;html=1;rounded=0;exitX=1;exitY=0.5;exitDx=0;exitDy=0;" parent="1" source="oXegIh3aJyW66HYwS0G9-139" edge="1">
          <mxGeometry width="50" height="50" relative="1" as="geometry">
            <mxPoint x="280" y="1970" as="sourcePoint" />
            <mxPoint x="430" y="1900" as="targetPoint" />
          </mxGeometry>
        </mxCell>
        <mxCell id="oXegIh3aJyW66HYwS0G9-142" value="Create Feeds in Shards, by users" style="text;html=1;align=center;verticalAlign=middle;whiteSpace=wrap;rounded=0;shadow=0;dashed=1;fillColor=#f5f5f5;fontColor=#333333;strokeColor=#666666;" parent="1" vertex="1">
          <mxGeometry x="285" y="1750" width="85" height="80" as="geometry" />
        </mxCell>
        <mxCell id="FxFDfvUKGRwIUdRoIgsq-8" value="" style="group" vertex="1" connectable="0" parent="1">
          <mxGeometry x="670" y="1255" width="120" height="175" as="geometry" />
        </mxCell>
        <mxCell id="FxFDfvUKGRwIUdRoIgsq-6" value="" style="rounded=1;whiteSpace=wrap;html=1;fillColor=#fff2cc;strokeColor=#d6b656;" vertex="1" parent="FxFDfvUKGRwIUdRoIgsq-8">
          <mxGeometry width="120" height="175" as="geometry" />
        </mxCell>
        <mxCell id="FxFDfvUKGRwIUdRoIgsq-5" value="" style="group" vertex="1" connectable="0" parent="FxFDfvUKGRwIUdRoIgsq-8">
          <mxGeometry x="30" y="45" width="60" height="110" as="geometry" />
        </mxCell>
        <mxCell id="FxFDfvUKGRwIUdRoIgsq-1" value="" style="rounded=1;whiteSpace=wrap;html=1;" vertex="1" parent="FxFDfvUKGRwIUdRoIgsq-5">
          <mxGeometry width="60" height="20" as="geometry" />
        </mxCell>
        <mxCell id="FxFDfvUKGRwIUdRoIgsq-2" value="" style="rounded=1;whiteSpace=wrap;html=1;" vertex="1" parent="FxFDfvUKGRwIUdRoIgsq-5">
          <mxGeometry y="60" width="60" height="20" as="geometry" />
        </mxCell>
        <mxCell id="FxFDfvUKGRwIUdRoIgsq-3" value="" style="rounded=1;whiteSpace=wrap;html=1;" vertex="1" parent="FxFDfvUKGRwIUdRoIgsq-5">
          <mxGeometry y="30" width="60" height="20" as="geometry" />
        </mxCell>
        <mxCell id="FxFDfvUKGRwIUdRoIgsq-4" value="" style="rounded=1;whiteSpace=wrap;html=1;" vertex="1" parent="FxFDfvUKGRwIUdRoIgsq-5">
          <mxGeometry y="90" width="60" height="20" as="geometry" />
        </mxCell>
        <mxCell id="FxFDfvUKGRwIUdRoIgsq-7" value="Message Queues" style="text;html=1;strokeColor=none;fillColor=none;align=center;verticalAlign=middle;whiteSpace=wrap;rounded=0;" vertex="1" parent="FxFDfvUKGRwIUdRoIgsq-8">
          <mxGeometry x="30" y="5" width="60" height="30" as="geometry" />
        </mxCell>
        <mxCell id="FxFDfvUKGRwIUdRoIgsq-9" value="3.2" style="ellipse;whiteSpace=wrap;html=1;aspect=fixed;shadow=0;dashed=1;strokeColor=#0F0800;fillColor=#FFFFFF;fontSize=11;" vertex="1" parent="1">
          <mxGeometry x="210" y="1399.75" width="30.25" height="30.25" as="geometry" />
        </mxCell>
        <mxCell id="FxFDfvUKGRwIUdRoIgsq-10" value="" style="edgeStyle=elbowEdgeStyle;elbow=horizontal;endArrow=classic;html=1;rounded=0;entryX=1;entryY=0.5;entryDx=0;entryDy=0;exitX=0.263;exitY=0.931;exitDx=0;exitDy=0;exitPerimeter=0;" edge="1" parent="1" source="oXegIh3aJyW66HYwS0G9-83" target="oXegIh3aJyW66HYwS0G9-90">
          <mxGeometry width="50" height="50" relative="1" as="geometry">
            <mxPoint x="400" y="1350" as="sourcePoint" />
            <mxPoint x="450" y="1300" as="targetPoint" />
          </mxGeometry>
        </mxCell>
        <mxCell id="FxFDfvUKGRwIUdRoIgsq-11" value="Get user id of&lt;br style=&quot;font-size: 11px;&quot;&gt;&amp;nbsp;friends" style="edgeLabel;html=1;align=center;verticalAlign=middle;resizable=0;points=[];fontSize=11;" vertex="1" connectable="0" parent="FxFDfvUKGRwIUdRoIgsq-10">
          <mxGeometry x="-0.5464" y="-3" relative="1" as="geometry">
            <mxPoint x="2" y="39" as="offset" />
          </mxGeometry>
        </mxCell>
        <mxCell id="FxFDfvUKGRwIUdRoIgsq-14" value="" style="edgeStyle=elbowEdgeStyle;elbow=horizontal;endArrow=classic;html=1;rounded=0;exitX=0.5;exitY=1;exitDx=0;exitDy=0;entryX=1;entryY=0.5;entryDx=0;entryDy=0;" edge="1" parent="1" source="FxFDfvUKGRwIUdRoIgsq-6" target="oXegIh3aJyW66HYwS0G9-89">
          <mxGeometry width="50" height="50" relative="1" as="geometry">
            <mxPoint x="730" y="1540" as="sourcePoint" />
            <mxPoint x="780" y="1490" as="targetPoint" />
            <Array as="points">
              <mxPoint x="730" y="1480" />
            </Array>
          </mxGeometry>
        </mxCell>
        <mxCell id="FxFDfvUKGRwIUdRoIgsq-25" value="3.2" style="ellipse;whiteSpace=wrap;html=1;aspect=fixed;shadow=0;dashed=1;strokeColor=#0F0800;fillColor=#FFFFFF;fontSize=11;gradientColor=none;" vertex="1" parent="1">
          <mxGeometry x="383" y="1314.88" width="30.25" height="30.25" as="geometry" />
        </mxCell>
        <mxCell id="FxFDfvUKGRwIUdRoIgsq-28" value="" style="endArrow=classic;html=1;rounded=0;edgeStyle=orthogonalEdgeStyle;startArrow=none;entryX=0;entryY=0.667;entryDx=0;entryDy=0;entryPerimeter=0;" edge="1" parent="1" source="oXegIh3aJyW66HYwS0G9-89" target="FxFDfvUKGRwIUdRoIgsq-29">
          <mxGeometry width="50" height="50" relative="1" as="geometry">
            <mxPoint x="450" y="1380" as="sourcePoint" />
            <mxPoint x="690" y="1190" as="targetPoint" />
            <Array as="points">
              <mxPoint x="540" y="1190" />
            </Array>
          </mxGeometry>
        </mxCell>
        <mxCell id="FxFDfvUKGRwIUdRoIgsq-29" value="Other regions" style="rounded=1;whiteSpace=wrap;html=1;fillColor=#fff2cc;strokeColor=#d6b656;" vertex="1" parent="1">
          <mxGeometry x="670" y="1150" width="120" height="60" as="geometry" />
        </mxCell>
        <mxCell id="FxFDfvUKGRwIUdRoIgsq-31" style="edgeStyle=orthogonalEdgeStyle;rounded=0;orthogonalLoop=1;jettySize=auto;html=1;exitX=0.5;exitY=1;exitDx=0;exitDy=0;entryX=0;entryY=0.788;entryDx=0;entryDy=0;entryPerimeter=0;fontSize=11;" edge="1" parent="1" source="oXegIh3aJyW66HYwS0G9-108" target="oXegIh3aJyW66HYwS0G9-108">
          <mxGeometry relative="1" as="geometry" />
        </mxCell>
        <mxCell id="FxFDfvUKGRwIUdRoIgsq-35" value="" style="edgeStyle=orthogonalEdgeStyle;rounded=0;orthogonalLoop=1;jettySize=auto;html=1;fontSize=11;entryX=-0.017;entryY=0.163;entryDx=0;entryDy=0;entryPerimeter=0;" edge="1" parent="1" source="FxFDfvUKGRwIUdRoIgsq-32" target="FxFDfvUKGRwIUdRoIgsq-6">
          <mxGeometry relative="1" as="geometry">
            <Array as="points">
              <mxPoint x="510" y="1410" />
              <mxPoint x="510" y="1284" />
            </Array>
          </mxGeometry>
        </mxCell>
        <mxCell id="FxFDfvUKGRwIUdRoIgsq-32" value="Topic for Handling Create Post" style="rounded=1;whiteSpace=wrap;html=1;" vertex="1" parent="1">
          <mxGeometry x="410" y="1370" width="60" height="80" as="geometry" />
        </mxCell>
        <mxCell id="FxFDfvUKGRwIUdRoIgsq-33" value="" style="edgeStyle=elbowEdgeStyle;elbow=horizontal;endArrow=classic;html=1;rounded=0;fontSize=11;exitX=0;exitY=0.5;exitDx=0;exitDy=0;entryX=0.5;entryY=0;entryDx=0;entryDy=0;" edge="1" parent="1" source="FxFDfvUKGRwIUdRoIgsq-32" target="oXegIh3aJyW66HYwS0G9-112">
          <mxGeometry width="50" height="50" relative="1" as="geometry">
            <mxPoint x="350" y="1480" as="sourcePoint" />
            <mxPoint x="400" y="1430" as="targetPoint" />
            <Array as="points">
              <mxPoint x="385" y="1520" />
            </Array>
          </mxGeometry>
        </mxCell>
        <mxCell id="FxFDfvUKGRwIUdRoIgsq-34" value="3.2.1" style="ellipse;whiteSpace=wrap;html=1;aspect=fixed;shadow=0;dashed=1;strokeColor=#0F0800;fillColor=#FFFFFF;fontSize=11;gradientColor=none;" vertex="1" parent="1">
          <mxGeometry x="360" y="1449.75" width="40.25" height="40.25" as="geometry" />
        </mxCell>
        <mxCell id="FxFDfvUKGRwIUdRoIgsq-37" value="3.2.2" style="ellipse;whiteSpace=wrap;html=1;aspect=fixed;shadow=0;dashed=1;strokeColor=#0F0800;fillColor=#FFFFFF;fontSize=11;gradientColor=none;" vertex="1" parent="1">
          <mxGeometry x="489.75" y="1329.75" width="40.25" height="40.25" as="geometry" />
        </mxCell>
      </root>
    </mxGraphModel>
  </diagram>
</mxfile>
